<?xml version="1.0" standalone="no"?>
<!DOCTYPE svg PUBLIC "-//W3C//DTD SVG 20010904//EN"
 "http://www.w3.org/TR/2001/REC-SVG-20010904/DTD/svg10.dtd">
<svg version="1.0" xmlns="http://www.w3.org/2000/svg"
 width="150.000000pt" height="23.850000pt" viewBox="0 0 150.000000 23.850000"
 preserveAspectRatio="xMidYMid meet">
<metadata>
Created by potrace 1.16, written by Peter Selinger 2001-2019
</metadata>
<g transform="translate(0.000000,23.850000) scale(0.007500,-0.007500)"
fill="#000000" stroke="none">
<path d="M17000 2969 c-961 -203 -986 -209 -1011 -238 -45 -49 -56 -140 -24
-192 6 -9 199 -142 430 -294 231 -153 423 -280 427 -284 3 -3 -4 -53 -18 -111
-13 -58 -24 -128 -24 -156 -1 -205 357 -450 829 -568 208 -52 281 -61 536 -60
216 0 248 2 319 22 150 42 238 96 275 171 10 20 26 75 36 123 10 47 21 92 25
99 7 10 477 118 521 119 34 0 108 -174 125 -292 6 -44 4 -49 -24 -73 -38 -32
-62 -83 -62 -132 0 -41 28 -111 52 -130 13 -11 13 -22 2 -80 -22 -115 -44
-334 -44 -430 0 -296 85 -463 235 -463 62 0 85 20 85 72 0 37 -23 65 -73 86
-18 8 -35 28 -48 57 -20 45 -39 172 -39 255 l1 45 23 -57 c30 -72 73 -134 125
-181 53 -48 108 -52 140 -11 35 44 27 77 -28 133 -92 93 -135 223 -165 508 -3
36 0 44 20 58 33 21 64 87 64 135 0 55 -20 99 -64 138 -27 24 -36 40 -36 65 0
55 -28 164 -63 252 l-34 85 36 9 c20 5 106 24 191 41 85 18 168 39 183 47 36
18 59 72 61 140 1 46 -3 56 -29 82 -16 16 -436 297 -932 625 l-901 596 -69 -1
c-48 -1 -359 -62 -1053 -210z m1049 -583 c59 -28 71 -48 51 -84 -13 -22 -24
-28 -60 -30 -55 -4 -118 13 -155 42 -23 19 -26 27 -20 54 5 25 14 34 38 40 43
12 93 5 146 -22z"/>
<path d="M15270 2747 c-14 -7 -36 -33 -50 -57 l-25 -45 0 -1055 0 -1055 25
-45 c50 -89 114 -87 160 5 l25 50 0 1040 c0 975 -1 1043 -18 1086 -28 72 -70
100 -117 76z"/>
<path d="M13012 2700 c-106 -87 -102 -75 -102 -327 l0 -218 -172 0 c-195 -1
-252 -12 -369 -71 -133 -66 -231 -200 -264 -359 -20 -95 -19 -296 1 -388 62
-279 263 -424 540 -389 104 14 192 52 238 102 l33 37 23 -34 c51 -75 70 -83
189 -83 92 0 110 3 124 18 16 17 17 88 17 811 l0 792 -26 34 c-35 47 -132 125
-155 125 -10 0 -45 -22 -77 -50z m-139 -845 l37 -19 0 -229 c0 -212 -2 -232
-20 -262 -31 -50 -90 -85 -163 -98 -113 -19 -192 23 -238 125 -20 46 -23 69
-23 168 0 97 3 124 23 174 28 70 83 128 142 150 59 21 190 16 242 -9z"/>
<path d="M8895 2611 c-325 -52 -493 -255 -456 -552 26 -202 135 -309 415 -408
249 -88 328 -162 296 -280 -22 -83 -120 -129 -251 -118 -78 7 -132 31 -195 89
-49 45 -65 48 -187 34 -93 -11 -101 -20 -95 -121 6 -95 20 -126 83 -184 93
-86 225 -123 435 -123 104 0 153 5 215 21 274 72 408 251 392 525 -12 223 -99
312 -427 436 -248 94 -294 130 -287 226 7 100 76 153 199 154 82 0 109 -10
171 -62 46 -38 54 -41 139 -50 107 -12 132 -4 142 42 11 58 7 170 -8 199 -31
60 -125 122 -236 156 -63 19 -267 28 -345 16z"/>
<path d="M147 2578 c-48 -13 -98 -62 -117 -114 -11 -32 -15 -167 -17 -746 -4
-702 -4 -707 16 -727 19 -19 33 -21 171 -21 137 0 152 2 170 20 20 20 20 33
20 630 0 669 -1 661 58 677 15 5 65 8 112 7 163 -2 230 -68 230 -227 0 -132
-61 -212 -171 -223 -65 -7 -118 -39 -159 -96 -44 -61 -40 -83 28 -142 179
-158 271 -275 369 -474 57 -117 81 -155 100 -163 13 -5 93 -9 177 -9 191 0
187 -2 159 113 -44 178 -184 418 -317 544 l-75 72 56 31 c132 75 204 180 224
326 29 217 -50 389 -215 469 -112 54 -148 58 -476 61 -191 2 -319 -1 -343 -8z"/>
<path d="M5173 2570 c-18 -10 -39 -30 -48 -43 -49 -75 -95 -696 -95 -1284 0
-239 1 -253 19 -263 31 -16 277 -13 293 4 11 11 17 119 27 542 7 291 15 563
18 604 l6 74 63 -159 c59 -150 212 -603 268 -795 38 -129 32 -124 182 -128
161 -5 190 1 209 38 8 16 40 106 71 201 64 198 156 444 252 674 l67 160 6
-160 c4 -88 7 -358 8 -600 1 -328 4 -444 13 -453 8 -8 59 -12 164 -12 129 0
154 2 165 17 12 13 13 89 11 417 -5 672 -28 1040 -71 1125 -28 55 -52 61 -222
61 -169 0 -197 -7 -249 -67 -70 -80 -283 -569 -353 -812 l-23 -80 -33 112
c-40 138 -146 423 -216 579 -60 134 -104 207 -147 243 -29 24 -33 25 -191 25
-143 0 -166 -2 -194 -20z"/>
<path d="M2982 2461 c-27 -21 -63 -56 -80 -77 -32 -38 -32 -40 -32 -146 l0
-108 -83 0 c-51 0 -88 -5 -95 -12 -8 -8 -12 -49 -12 -119 0 -136 3 -139 110
-139 l79 0 3 -332 3 -333 28 -61 c51 -109 126 -162 262 -184 88 -14 220 -5
300 22 95 31 94 30 47 155 l-40 108 -79 -3 c-73 -4 -82 -2 -110 22 -46 39 -53
84 -53 360 l0 246 114 0 c147 0 146 -1 146 131 0 143 4 139 -140 139 l-120 0
0 106 c0 99 -2 107 -27 141 -36 47 -130 123 -153 123 -10 0 -40 -18 -68 -39z"/>
<path d="M9966 2439 c-89 -82 -96 -98 -96 -214 l0 -95 -78 0 c-47 0 -83 -5
-90 -12 -8 -8 -12 -50 -12 -125 0 -133 0 -133 108 -133 l70 0 4 -317 c5 -346
10 -378 66 -461 34 -52 80 -86 151 -114 83 -32 275 -30 381 4 93 30 95 36 45
169 l-38 99 -77 -6 c-63 -5 -81 -4 -103 10 -51 34 -57 72 -57 356 l0 260 114
0 c107 0 116 1 130 22 18 26 22 180 6 222 -9 26 -10 26 -130 26 l-120 0 0 104
c0 102 -1 105 -32 142 -48 59 -129 124 -154 124 -12 0 -49 -26 -88 -61z"/>
<path d="M10853 2162 c-26 -21 -65 -58 -86 -81 l-38 -43 3 -381 c4 -355 5
-386 25 -444 56 -167 140 -239 307 -264 150 -22 322 20 397 97 l33 34 51 -55
51 -55 108 0 c59 0 116 5 127 10 18 10 19 27 19 539 l0 528 -62 62 c-35 35
-76 70 -91 77 -25 14 -31 13 -60 -5 -18 -11 -57 -45 -87 -76 l-55 -56 -5 -332
c-5 -316 -6 -334 -27 -372 -48 -90 -97 -119 -192 -113 -109 6 -153 53 -172
181 -5 34 -9 191 -9 348 l0 287 -56 57 c-50 51 -108 95 -126 95 -3 0 -28 -17
-55 -38z"/>
<path d="M1830 2154 c-126 -19 -248 -66 -273 -105 -21 -31 -51 -154 -43 -174
6 -17 35 -30 116 -51 l55 -14 80 40 c185 93 352 47 367 -100 l3 -35 -60 -2
c-181 -7 -371 -48 -468 -100 -67 -37 -130 -108 -156 -176 -27 -73 -29 -201 -4
-277 21 -64 89 -143 153 -175 142 -72 379 -48 487 49 l48 44 50 -54 51 -54
108 0 c59 0 116 5 127 10 18 10 19 25 19 398 0 428 -4 466 -62 574 -76 142
-226 209 -463 206 -60 0 -121 -2 -135 -4z m300 -731 c-1 -68 -7 -88 -45 -134
-63 -79 -203 -99 -275 -41 -30 24 -37 89 -15 136 30 63 133 102 278 105 l57 1
0 -67z"/>
<path d="M4083 2146 c-286 -66 -437 -301 -420 -656 9 -183 56 -300 158 -394
66 -62 137 -98 247 -128 62 -16 107 -20 232 -20 177 0 265 17 373 74 76 40
100 81 101 171 1 57 -1 61 -30 79 -17 10 -56 23 -87 29 -55 10 -58 9 -149 -36
-70 -34 -109 -47 -158 -51 -168 -16 -294 61 -324 199 l-6 27 272 0 c150 0 293
5 318 11 59 13 115 51 137 91 21 42 29 186 14 257 -35 162 -148 282 -320 338
-66 21 -280 26 -358 9z m254 -257 c53 -26 93 -88 93 -145 0 -22 -5 -45 -12
-52 -9 -9 -68 -12 -205 -12 -106 0 -193 1 -193 3 0 21 37 119 57 148 50 76
169 102 260 58z"/>
<path d="M7199 2106 c-119 -97 -123 -111 -94 -282 44 -248 216 -597 384 -777
l63 -67 -47 -65 c-79 -111 -173 -165 -287 -165 -56 0 -61 -2 -109 -47 -88 -83
-92 -106 -30 -191 44 -60 84 -82 151 -82 180 1 362 90 514 250 174 184 368
567 462 908 69 252 83 388 45 440 -29 42 -145 132 -168 132 -25 0 -146 -101
-171 -143 -14 -23 -21 -58 -25 -122 -9 -143 -92 -477 -141 -564 l-13 -24 -43
54 c-109 138 -210 425 -210 596 0 37 -6 50 -42 88 -52 58 -130 115 -155 115
-10 0 -49 -24 -84 -54z"/>
<path d="M13579 2106 c-94 -77 -109 -99 -109 -158 0 -239 198 -686 400 -901
l62 -67 -47 -65 c-79 -112 -173 -165 -289 -165 l-60 0 -64 -65 c-73 -75 -74
-86 -18 -165 65 -91 126 -108 280 -75 231 49 426 223 603 538 158 282 296 691
310 918 5 89 4 98 -17 127 -33 44 -144 132 -167 132 -25 0 -159 -112 -178
-150 -8 -16 -15 -53 -15 -82 0 -127 -90 -499 -144 -596 l-13 -24 -31 36 c-105
120 -204 378 -219 575 -6 81 -8 87 -46 128 -51 56 -129 113 -154 113 -10 0
-49 -24 -84 -54z"/>
</g>
</svg>
